<svg width="271" height="176" viewBox="0 0 271 176" fill="none" xmlns="http://www.w3.org/2000/svg">
<g clip-path="url(#clip0_3_179)">
<path d="M270.338 100.869H98.3128V2.73682H270.338V100.869Z" fill="white"/>
<path d="M271 101.532H97.6508V2.07446H271V101.532ZM98.9753 100.207H269.675V3.39899H98.9753V100.207Z" fill="#CACACA"/>
<path d="M186.97 72.4611C197.119 72.4611 205.346 64.2341 205.346 54.0857C205.346 43.9372 197.119 35.7103 186.97 35.7103C176.822 35.7103 168.595 43.9372 168.595 54.0857C168.595 64.2341 176.822 72.4611 186.97 72.4611Z" fill="#6C63FF"/>
<path d="M190.494 55.3586C189.005 53.6508 187.599 50.8956 186.775 48.6751C185.952 50.8956 184.546 53.6508 183.057 55.3586L186.384 54.1549V61.577H187.166V54.1549L190.494 55.3586Z" fill="white"/>
<path d="M191.153 6.25541H159.483V0H191.153L194.279 3.12787L191.153 6.25541Z" fill="#CACACA"/>
<path d="M159.875 6.25541H128.206V0H159.875L163.002 3.12787L159.875 6.25541Z" fill="#3F3D56"/>
<path d="M128.99 6.25541H97.3196V0H128.99L132.116 3.12787L128.99 6.25541Z" fill="#6C63FF"/>
<path d="M5.5531 174.63L5.65089 174.192C5.67256 174.096 7.88676 164.521 15.1887 159.162C22.4909 153.803 32.289 154.561 32.3869 154.569L32.8336 154.607L32.7358 155.044C32.7141 155.14 30.4999 164.715 23.198 170.074C15.8957 175.434 6.09766 174.676 5.99973 174.667L5.5531 174.63ZM15.6514 159.793C9.47754 164.324 7.05746 171.984 6.5301 173.912C8.52881 173.986 16.5674 173.971 22.7353 169.444C28.9025 164.917 31.3274 157.254 31.8566 155.324C29.8567 155.25 21.8189 155.266 15.6514 159.793Z" fill="#F0F0F0"/>
<path d="M18.4124 162.029C14.8765 170.323 6.14391 174.546 6.14391 174.546C6.14391 174.546 3.1442 165.321 6.68008 157.027C10.216 148.734 18.9486 144.511 18.9486 144.511C18.9486 144.511 21.9483 153.735 18.4124 162.029Z" fill="#F0F0F0"/>
<path d="M109.13 70.0899C108.805 69.6192 108.381 69.2253 107.888 68.9362C107.395 68.647 106.844 68.4694 106.275 68.4161C105.706 68.3627 105.132 68.4348 104.593 68.6274C104.055 68.8199 103.565 69.1281 103.159 69.5303L94.9176 66.0719L91.5945 70.5675L103.301 75.2879C104.022 75.9258 104.952 76.2771 105.915 76.2753C106.877 76.2734 107.806 75.9185 108.524 75.2777C109.243 74.637 109.701 73.755 109.813 72.7988C109.924 71.8427 109.681 70.8788 109.13 70.0899Z" fill="#FEB8B8"/>
<path d="M93.1344 169.78L98.1686 169.78L98.6574 151.875L93.1334 150.362L93.1344 169.78Z" fill="#FEB8B8"/>
<path d="M91.8501 168.137L101.764 168.136H101.765C103.44 168.137 105.047 168.802 106.232 169.987C107.417 171.172 108.083 172.779 108.083 174.455V174.66L91.8504 174.66L91.8501 168.137Z" fill="#2F2E41"/>
<path d="M55.3095 169.78L60.3437 169.78L62.7388 150.362L55.3085 150.362L55.3095 169.78Z" fill="#FEB8B8"/>
<path d="M54.0254 168.137L63.9397 168.136H63.9401C65.6158 168.137 67.2228 168.802 68.4076 169.987C69.5925 171.172 70.2582 172.779 70.2583 174.455V174.66L54.0257 174.66L54.0254 168.137Z" fill="#2F2E41"/>
<path d="M86 58L101 67.4637L98.3457 75C98.3457 75 89.1041 70.041 88.4969 70.3915C87.8898 70.7419 86 58 86 58Z" fill="#CCCCCC"/>
<path d="M66.8078 86.34L63.0154 122.368L51.6381 163.91L61.1192 165.427L88.4246 107.578L83.4945 76.4796L75.1511 73.4457L66.8078 86.34Z" fill="#2F2E41"/>
<path d="M60.7399 85.9609C60.7399 85.9609 70.222 91.5314 73.3145 102.355C76.6258 113.945 82.736 131.849 82.736 131.849L91.0793 165.806L101.319 163.151L89.1831 85.9609L78.9435 77.2382L65.67 75.7213L60.7399 85.9609Z" fill="#2F2E41"/>
<path d="M84.11 26.6233C88.9274 26.6233 92.8326 22.718 92.8326 17.9007C92.8326 13.0833 88.9274 9.17804 84.11 9.17804C79.2927 9.17804 75.3875 13.0833 75.3875 17.9007C75.3875 22.718 79.2927 26.6233 84.11 26.6233Z" fill="#FEB8B8"/>
<path d="M84.8862 34.7629C84.8862 34.7629 78.623 27.8752 73.6928 27.8752C72.1081 27.8752 61.0781 40.1655 60.7313 49.0425L57.2015 88.2363C57.2015 88.2363 91.3334 90.1326 91.7126 88.6156C92.0918 87.0986 84.8862 34.7629 84.8862 34.7629Z" fill="#CCCCCC"/>
<path d="M79.7647 21.7136C80.4643 21.6719 81.1475 21.9083 81.8423 22.0006C83.0932 22.1269 84.3479 21.8008 85.3791 21.0815C86.4102 20.3623 87.1496 19.2974 87.4631 18.0799C87.5071 17.754 87.6042 17.4376 87.7506 17.1432C88.1331 16.5185 89.0045 16.3994 89.7227 16.5431C90.441 16.6867 91.1219 17.0229 91.8533 17.0613C92.4207 17.0634 92.9788 16.9175 93.4726 16.6381C93.9664 16.3586 94.3787 15.9552 94.669 15.4677C95.2378 14.4799 95.4797 13.3375 95.36 12.2039L94.8186 12.7722C94.5986 12.3067 94.5137 11.7889 94.5735 11.2775C94.2865 11.2011 93.9848 11.1996 93.6971 11.2732C93.4095 11.3468 93.1456 11.4931 92.9306 11.6979C92.4532 11.7487 92.8135 10.8123 92.4588 10.4888C92.2863 10.3828 92.0807 10.3443 91.8816 10.3808C90.8659 10.3906 90.0443 9.6137 89.2439 8.98835C87.8572 7.90721 86.2355 7.16751 84.5101 6.82903C83.366 6.55765 82.1685 6.6157 81.056 6.99645C80.178 7.3906 79.3856 7.95272 78.7234 8.65113C77.0206 10.2885 75.5127 12.2124 74.8043 14.466C74.2284 16.3119 74.2121 18.287 74.7574 20.1422C75.0428 21.1056 75.9031 24.4052 77.1626 24.482C78.7451 24.5785 77.7949 21.8311 79.7647 21.7136Z" fill="#2F2E41"/>
<path opacity="0.1" d="M77.5004 44.2298L68.5685 57.3297L65.7122 87.7591L77.5004 44.2298Z" fill="black"/>
<path d="M64.5371 99.5788C64.9242 99.1579 65.2142 98.6573 65.3869 98.1122C65.5595 97.5672 65.6106 96.9908 65.5364 96.4239C65.4622 95.857 65.2647 95.3132 64.9576 94.8309C64.6505 94.3485 64.2414 93.9394 63.7591 93.6323L65.3045 84.8295L60.1841 82.5856L58.1763 95.0476C57.7141 95.892 57.5777 96.8766 57.7929 97.8149C58.0081 98.7532 58.5601 99.5799 59.3441 100.138C60.1282 100.697 61.0898 100.948 62.047 100.845C63.0041 100.742 63.8901 100.292 64.5371 99.5788Z" fill="#FEB8B8"/>
<path d="M69.4059 31.9098L60.2821 61.5076C60.2821 61.5076 56.8935 80.3683 58.4105 83.4023C59.9275 86.4362 56.9473 92.4079 56.9473 92.4079L65.6699 93.1664L69.9102 62.1699L77.4264 38.5552C77.4264 38.5552 80.404 30.0136 69.4059 31.9098Z" fill="#CCCCCC"/>
<path d="M107.615 54.1812L100.734 87.1942L127.913 92.8586L134.793 59.8456L107.615 54.1812Z" fill="#CACACA"/>
<path d="M107.995 54.989L101.405 86.6052L127.187 91.9785L133.776 60.3622L107.995 54.989Z" fill="white"/>
<path d="M113.869 59.3978L113.677 60.3228L120.149 61.6716L120.342 60.7467L113.869 59.3978Z" fill="#E6E6E6"/>
<path d="M113.303 62.1135L113.111 63.0385L126.28 65.7833L126.473 64.8583L113.303 62.1135Z" fill="#6C63FF"/>
<path d="M112.962 64.7408L112.769 65.6658L122.423 67.6778L122.615 66.7528L112.962 64.7408Z" fill="#E6E6E6"/>
<path d="M112.173 67.5373L111.98 68.4623L115.187 69.1307L115.38 68.2057L112.173 67.5373Z" fill="#E6E6E6"/>
<path d="M111.595 70.3091L111.403 71.2341L119.214 72.8621L119.407 71.9371L111.595 70.3091Z" fill="#6C63FF"/>
<path d="M111.014 73.0982L110.821 74.0232L117.293 75.3721L117.486 74.4471L111.014 73.0982Z" fill="#E6E6E6"/>
<path d="M110.448 75.8138L110.255 76.7388L123.425 79.4836L123.618 78.5585L110.448 75.8138Z" fill="#6C63FF"/>
<path d="M110.107 78.4411L109.914 79.3661L119.567 81.378L119.76 80.453L110.107 78.4411Z" fill="#E6E6E6"/>
<path d="M109.318 81.2378L109.125 82.1628L112.332 82.8312L112.525 81.9061L109.318 81.2378Z" fill="#E6E6E6"/>
<path d="M108.74 84.0095L108.547 84.9345L116.359 86.5626L116.551 85.6376L108.74 84.0095Z" fill="#E6E6E6"/>
<path d="M126.492 175.204H0.331131C0.24331 175.204 0.159085 175.169 0.0969857 175.107C0.0348867 175.045 0 174.961 0 174.873C0 174.785 0.0348867 174.701 0.0969857 174.639C0.159085 174.577 0.24331 174.542 0.331131 174.542H126.492C126.58 174.542 126.664 174.577 126.726 174.639C126.788 174.701 126.823 174.785 126.823 174.873C126.823 174.961 126.788 175.045 126.726 175.107C126.664 175.169 126.58 175.204 126.492 175.204Z" fill="#CACACA"/>
</g>
<defs>
<clipPath id="clip0_3_179">
<rect width="271" height="175.204" fill="white"/>
</clipPath>
</defs>
</svg>
